# xmcd
#
# Track frame offsets:
#	150
#	9032
#	19985
#	30607
#	40525
#	52970
#	65632
#	77140
#	88837
#	98502
#	109252
#	120537
#	132945
#	146582
#	154940
#	165470
#	177060
#	187030
#	196395
#	206817
#	218975
#	230732
#	242722
#	256487
#
# Disc length: 3585 seconds
#
# Revision: 1
# Processed by: cddbd v1.5.1PL0 Copyright (c) Steve Scherf et al.
# Submitted via: audiograbber 1.83.01
#
DISCID=4b0dff18
DTITLE=Various Artist - Jerk! Shake! And Vibrate!
DYEAR=1900
DGENRE=
TTITLE0=Bill Pinkney - I Do the Jerk
TTITLE1=Roscoe and Friends - Broadway Sissy
TTITLE2=Little Genie Brooks - The James Brown Bougelou
TTITLE3=Jim Pipkins and the Boss Five - Mister C.C.
TTITLE4=Kickapoo Kidd and the Deputies - The Kick-a-Poo Part 1
TTITLE5=Gene Willis and the Aggregation - We Got It
TTITLE6=Willie Wicher - Hoopy Doo
TTITLE7=Plookie McCline - Uncle Willy
TTITLE8=Reggie Powell - Do the Ape
TTITLE9=Mel Williams - Sookie
TTITLE10=The Persians - Let's Monkey Again
TTITLE11=Jimmy Soul - Take me to Los Angeles
TTITLE12=Clarence Paul - Baby Don't You Leave Poor Me
TTITLE13=Wilbur Reynolds and the Masters - Sweete'n
TTITLE14=Sir Latimore Brown - Shake and Vibrate
TTITLE15=Roscoe Shelton - Running For My Life
TTITLE16=Allen Greene - Neck Bones
TTITLE17=Dorothy Parker - Shindig City
TTITLE18=AF-Tabs - The Broom
TTITLE19=Al White and the Hi-Liters - Thread the Needle
TTITLE20=Lester Young and the California Playboys - Funky, Funky Horse (Part One)
TTITLE21=Lee Moses - How Much Longer (Must I Wait)
TTITLE22=Lester Young - Let Your Love Shine
TTITLE23=Maurice Dollison and the Turnkeys - The Earthworm Part 1
EXTD=
EXTT0=
EXTT1=
EXTT2=
EXTT3=
EXTT4=
EXTT5=
EXTT6=
EXTT7=
EXTT8=
EXTT9=
EXTT10=
EXTT11=
EXTT12=
EXTT13=
EXTT14=
EXTT15=
EXTT16=
EXTT17=
EXTT18=
EXTT19=
EXTT20=
EXTT21=
EXTT22=
EXTT23=
PLAYORDER=
